HIERARCHY
ROOT root
{
	OFFSET 0.000000 0.000000 0.000000
	CHANNELS 6 Xposition Yposition Zposition Zrotation Yrotation Xrotation
	JOINT lhip
	{
		OFFSET 0.058581 -0.082280 -0.017664
		CHANNELS 3 Zrotation Yrotation Xrotation
		JOINT lknee
		{
			OFFSET 0.043451 -0.386469 0.008037
			CHANNELS 3 Zrotation Yrotation Xrotation
			JOINT lankle
			{
				OFFSET -0.014790 -0.426874 -0.037428
				CHANNELS 3 Zrotation Yrotation Xrotation
				JOINT ltoe
				{
					OFFSET 0.041054 -0.060286 0.122042
					CHANNELS 3 Zrotation Yrotation Xrotation
					End Site
					{
						OFFSET 0.000000 0.000000 0.000000
					}
				}
			}
		}
	}
	JOINT rhip
	{
		OFFSET -0.060310 -0.090513 -0.013543
		CHANNELS 3 Zrotation Yrotation Xrotation
		JOINT rknee
		{
			OFFSET -0.043257 -0.383688 -0.004843
			CHANNELS 3 Zrotation Yrotation Xrotation
			JOINT rankle
			{
				OFFSET 0.019056 -0.420046 -0.034562
				CHANNELS 3 Zrotation Yrotation Xrotation
				JOINT rtoe
				{
					OFFSET -0.034840 -0.062106 0.130323
					CHANNELS 3 Zrotation Yrotation Xrotation
					End Site
					{
						OFFSET 0.000000 0.000000 0.000000
					}
				}
			}
		}
	}
	JOINT lowerback
	{
		OFFSET 0.004439 0.124404 -0.038385
		CHANNELS 3 Zrotation Yrotation Xrotation
		JOINT upperback
		{
			OFFSET 0.004488 0.137956 0.026820
			CHANNELS 3 Zrotation Yrotation Xrotation
			JOINT chest
			{
				OFFSET -0.002265 0.056032 0.002855
				CHANNELS 3 Zrotation Yrotation Xrotation
				JOINT lowerneck
				{
					OFFSET -0.013390 0.211636 -0.033468
					CHANNELS 3 Zrotation Yrotation Xrotation
					JOINT upperneck
					{
						OFFSET 0.010113 0.088937 0.050410
						CHANNELS 3 Zrotation Yrotation Xrotation
						End Site
						{
							OFFSET 0.000000 0.000000 0.000000
						}
					}
				}
				JOINT lclavicle
				{
					OFFSET 0.071702 0.114000 -0.018898
					CHANNELS 3 Zrotation Yrotation Xrotation
					JOINT lshoulder
					{
						OFFSET 0.122921 0.045205 -0.019046
						CHANNELS 3 Zrotation Yrotation Xrotation
						JOINT lelbow
						{
							OFFSET 0.255332 -0.015649 -0.022946
							CHANNELS 3 Zrotation Yrotation Xrotation
							JOINT lwrist
							{
								OFFSET 0.265709 0.012698 -0.007375
								CHANNELS 3 Zrotation Yrotation Xrotation
								End Site
								{
									OFFSET 0.000000 0.000000 0.000000
								}
							}
						}
					}
				}
				JOINT rclavicle
				{
					OFFSET -0.082954 0.112472 -0.023707
					CHANNELS 3 Zrotation Yrotation Xrotation
					JOINT rshoulder
					{
						OFFSET -0.113228 0.046853 -0.008472
						CHANNELS 3 Zrotation Yrotation Xrotation
						JOINT relbow
						{
							OFFSET -0.260127 -0.014369 -0.031269
							CHANNELS 3 Zrotation Yrotation Xrotation
							JOINT rwrist
							{
								OFFSET -0.269108 0.006794 -0.006027
								CHANNELS 3 Zrotation Yrotation Xrotation
								End Site
								{
									OFFSET 0.000000 0.000000 0.000000
								}
							}
						}
					}
				}
			}
		}
	}
}
MOTION
Frames: 9
Frame Time: 0.033333
1.154320 1.172147 1.133637 -86.081246 2.413842 86.629891 0.680634 0.727726 6.998248 -2.372481 -12.570163 1.761817 4.067574 8.728583 -14.895566 0.000000 -0.000000 0.000000 3.939351 -2.156552 6.004161 4.074149 2.686766 4.175226 1.975728 -4.434219 -10.901971 0.000000 -0.000000 0.000000 -1.205087 1.154799 4.715369 1.727116 -2.682230 3.097918 1.166898 -2.488729 5.426027 2.610312 2.631583 -4.243912 1.485038 -1.895347 1.543874 -25.937334 7.715790 2.034998 -59.970285 -4.082472 6.458512 9.751902 -24.568637 4.702592 -3.704928 -1.309272 -9.013643 24.849304 -5.549675 -0.804199 60.666174 1.247350 9.916348 -15.225219 24.119519 -5.433025 6.234000 -0.310902 -9.631030 
1.154680 1.172360 1.133453 -86.061201 2.387145 86.680348 0.715073 0.690913 6.809853 -2.524526 -12.498953 2.004003 3.992769 8.718584 -14.742338 0.000000 -0.000000 0.000000 3.877851 -2.009897 5.909653 4.157116 2.672432 4.283210 2.062629 -4.472774 -10.757447 0.000000 -0.000000 0.000000 -1.273184 1.166792 4.584615 1.744642 -2.654322 3.069544 1.193586 -2.486171 5.546064 2.659747 2.494842 -4.145046 1.521153 -1.969503 1.534433 -25.797151 7.676812 2.072795 -60.106488 -4.178089 6.614130 9.774971 -24.815503 4.751860 -3.573570 -1.269985 -9.348145 24.785611 -5.587615 -0.761993 60.703513 1.226244 10.029908 -15.177601 24.476106 -5.381941 6.149769 -0.371555 -9.896578 
1.155386 1.172599 1.133498 -85.935844 2.396995 86.628779 0.741285 0.571881 6.711300 -2.553162 -12.495597 2.172937 3.991453 8.713788 -14.725508 0.000000 -0.000000 0.000000 3.915658 -2.006491 5.890959 4.153320 2.738208 4.539672 2.073683 -4.534375 -10.525456 0.000000 -0.000000 0.000000 -1.268707 1.145027 4.565710 1.771268 -2.698741 3.153061 1.212499 -2.560189 5.522304 2.682624 2.478750 -3.913190 1.556672 -1.932426 1.594902 -25.846837 7.577579 2.252413 -60.141252 -4.284871 6.647135 9.990210 -25.225577 4.568564 -3.462376 -1.261188 -9.387896 24.783607 -5.462156 -0.763311 60.741184 1.315997 10.062965 -15.255710 24.450791 -5.409215 6.140880 -0.403077 -9.932472 
1.155920 1.172837 1.133505 -85.918833 2.338176 86.577356 0.674661 0.555460 6.661163 -2.560073 -12.467736 2.264059 3.931433 8.758551 -14.724669 0.000000 -0.000000 0.000000 3.798510 -1.901111 5.869483 4.249621 2.548933 4.396621 2.112458 -4.467501 -10.901219 0.000000 -0.000000 0.000000 -1.377008 1.180721 4.684107 1.795851 -2.672726 2.968782 1.229615 -2.574865 5.509805 2.591522 2.169328 -2.917753 1.746096 -2.198271 1.552928 -25.697102 7.670408 2.205506 -60.291733 -4.406598 6.767176 9.997583 -25.596516 4.595137 -3.359923 -1.269328 -9.540405 24.710885 -5.523866 -0.793759 60.885451 1.230974 10.126267 -15.329461 24.644308 -5.224636 6.040111 -0.570476 -9.887537 
1.156194 1.172950 1.133531 -85.871306 2.343641 86.574220 0.679483 0.482800 6.626962 -2.545400 -12.481426 2.268310 3.938050 8.752290 -14.634748 0.000000 -0.000000 0.000000 3.812068 -1.924527 5.848849 4.264915 2.525758 4.379283 2.098397 -4.458943 -10.787573 0.000000 -0.000000 0.000000 -1.405225 1.199612 4.666837 1.810386 -2.663779 2.954132 1.242955 -2.578669 5.471065 2.602257 2.233468 -2.906062 1.782517 -2.131051 1.560542 -25.633852 7.600121 2.231827 -60.383417 -4.435501 6.844365 10.026284 -25.864804 4.635560 -3.384888 -1.284338 -9.644158 24.720433 -5.516200 -0.777284 60.901183 1.232462 10.117373 -15.367722 24.744607 -5.295366 6.114144 -0.515298 -10.037061 
1.156424 1.173017 1.133680 -85.871802 2.333579 86.539785 0.654799 0.454556 6.707337 -2.489631 -12.472058 2.174372 3.929239 8.770111 -14.641044 0.000000 -0.000000 0.000000 3.784140 -1.986904 5.917525 4.303857 2.860289 4.569222 2.112596 -4.538910 -10.549335 0.000000 -0.000000 0.000000 -1.352213 1.202265 4.487600 1.769416 -2.651572 3.095633 1.155964 -2.584703 5.583827 2.674217 2.561267 -3.657250 1.605001 -2.015707 1.771515 -25.684691 7.607313 2.134833 -60.225550 -4.636578 6.930814 9.904331 -26.257788 4.775512 -3.260200 -1.397349 -9.616478 24.892252 -5.393958 -0.797487 60.801474 1.384198 10.276593 -15.438620 24.698349 -5.401832 6.057427 -0.523129 -9.943707 
1.156852 1.173183 1.133607 -85.874099 2.393602 86.609481 0.717965 0.439700 6.588160 -2.416494 -12.450234 2.092848 3.938232 8.774259 -14.790687 0.000000 -0.000000 0.000000 3.947075 -1.816997 5.827507 4.253525 2.635268 4.221144 2.042026 -4.832087 -10.912800 0.000000 -0.000000 0.000000 -1.345372 1.156414 4.344630 1.784768 -2.594271 3.069933 1.190129 -2.569005 5.685454 2.750840 2.766992 -3.984124 1.518282 -1.995022 1.941920 -25.663482 7.658194 1.954559 -60.279850 -4.723531 7.069557 9.929005 -26.526302 4.855437 -3.104364 -1.453526 -9.600660 24.949396 -5.374989 -0.833175 60.739834 1.536690 10.340602 -15.498526 24.648502 -5.494315 5.951749 -0.598776 -9.917149 
1.157071 1.173271 1.133683 -85.874031 2.393104 86.488606 0.735285 0.505925 6.633807 -2.487823 -12.512986 2.313069 3.848211 8.719852 -14.665616 0.000000 -0.000000 0.000000 3.917994 -1.893444 5.922182 4.262190 2.650088 4.309146 2.080942 -4.622927 -10.862262 0.000000 -0.000000 0.000000 -1.345302 1.170249 4.496589 1.777770 -2.584172 3.077376 1.177685 -2.524796 5.603796 2.642374 2.712791 -3.736227 1.610689 -1.922865 1.904129 -25.570032 7.630948 1.918360 -60.363834 -4.760677 7.072902 9.828466 -26.853724 4.814845 -3.131112 -1.414926 -9.687242 24.923618 -5.430468 -0.859950 60.703722 1.466194 10.264216 -15.410958 24.979736 -5.528052 6.003166 -0.591984 -9.985804 
1.157399 1.173468 1.133761 -85.857471 2.396641 86.441872 0.749790 0.436924 6.697287 -2.474785 -12.515482 2.256049 3.841077 8.755949 -14.646275 0.000000 -0.000000 0.000000 3.888473 -1.896643 5.949095 4.330117 2.830773 4.494600 2.059935 -4.639915 -10.421637 0.000000 -0.000000 0.000000 -1.335404 1.180029 4.535586 1.768811 -2.565701 3.067542 1.201848 -2.533200 5.627362 2.654872 2.816675 -4.159618 1.527786 -1.873412 2.075086 -25.592838 7.583587 1.853041 -60.419908 -4.779717 7.121587 9.913851 -27.057343 4.839940 -2.927488 -1.439403 -9.716161 24.945388 -5.412918 -0.863883 60.603985 1.424107 10.355415 -15.483276 25.155534 -5.506074 5.855677 -0.534101 -9.894212 
